<svg width="507" height="206" viewBox="0 0 507 206" fill="none" xmlns="http://www.w3.org/2000/svg">
<path d="M70.2578 134.616C71.3379 112.751 80.8662 95.298 100.193 83.445C108.911 78.1131 118.478 74.7759 128.469 72.7812C133.754 71.7455 139.154 71.1318 144.516 70.4029C146.599 70.1344 148.683 70.0194 150.766 69.9043C151.036 69.9043 151.46 70.2879 151.614 70.5947C153.543 74.5457 155.086 78.6501 156.282 82.8696C157.555 87.4344 158.519 92.0758 158.751 96.8323C158.944 100.63 159.137 104.427 158.867 108.225C157.786 123.453 152.579 137.148 143.089 149.192C132.404 162.733 118.593 171.594 101.851 175.89C96.9909 177.118 92.0532 177.77 87.0383 178C86.7297 178 86.3054 177.731 86.1125 177.463C81.9849 172.208 78.5516 166.531 75.8899 160.432C73.4211 154.793 71.6851 148.885 70.875 142.786C70.5279 140.255 70.4893 137.685 70.2578 134.616Z" fill="#F36F21"/>
<path d="M9 91.999C12.6261 63.8435 35.6173 34.729 71.3386 29.0135C109.76 22.876 139.464 45.6613 150.766 69.0987C150.303 69.0987 149.956 69.0987 149.57 69.0987C125.383 69.0987 101.158 69.0987 76.9706 69.022C73.8074 69.022 70.6056 68.8302 67.4424 68.9069C48.1931 69.2905 30.6796 74.9676 15.2493 86.5521C13.2819 88.0481 11.5074 89.7742 9.61721 91.4237C9.42433 91.5771 9.23146 91.7689 9 91.999Z" fill="#F36F21"/>
<path d="M61.3469 174.855C58.8781 173.934 56.7179 173.128 54.519 172.323C54.3647 172.284 54.2104 172.208 54.0561 172.131C51.0986 170.878 48.9255 168.794 47.5368 165.878C44.2578 159.089 42.0976 151.993 41.0946 144.512C40.516 140.331 40.2074 136.15 40.6317 131.969C41.2489 125.947 42.7148 120.078 44.9522 114.439C50.1985 101.205 59.4181 91.5005 71.6853 84.4041C80.6349 79.2256 90.3174 75.8883 100.308 73.4716C101.196 73.2415 102.083 73.0498 103.24 72.7812C100.347 73.8937 97.724 74.8143 95.178 75.8884C83.8753 80.6832 73.5755 87.0125 65.1274 96.0269C57.8366 103.775 52.8603 112.751 50.7772 123.185C50.1985 126.062 49.7742 129.015 49.6971 131.969C49.3113 147.044 53.0917 161.084 60.9226 174.011C61.0383 174.164 61.1155 174.356 61.3469 174.778V174.855Z" fill="#F36F21"/>
<path d="M90.1253 71.5151C75.0421 73.5098 60.6533 77.5375 47.6533 85.6696C37.6236 91.9221 29.7155 100.169 24.6235 110.91C22.0775 116.319 20.303 121.996 19.6087 127.941C19.0686 132.353 18.8757 136.802 18.5285 141.099C18.5285 141.099 18.3357 140.83 18.1814 140.6C15.9054 136.649 14.0152 132.506 12.4336 128.248C12.0864 127.328 12.125 126.484 12.3178 125.601C14.2852 116.012 17.9885 107.189 24.0449 99.3638C29.7155 92.0372 36.7749 86.3984 44.9916 82.1405C53.2854 77.806 62.1192 75.1592 71.3003 73.5098C77.5496 72.3974 83.8374 71.7452 90.1639 71.5535L90.1253 71.5151Z" fill="#F36F21"/>
<path d="M70.2578 134.616C71.3379 112.751 80.8662 95.298 100.193 83.445C108.911 78.1131 118.478 74.7759 128.469 72.7812C133.754 71.7455 139.154 71.1318 144.516 70.4029C146.599 70.1344 148.683 70.0194 150.766 69.9043C151.036 69.9043 151.46 70.2879 151.614 70.5947C153.543 74.5457 155.086 78.6501 156.282 82.8696C157.555 87.4344 158.519 92.0758 158.751 96.8323C158.944 100.63 159.137 104.427 158.867 108.225C157.786 123.453 152.579 137.148 143.089 149.192C132.404 162.733 118.593 171.594 101.851 175.89C96.9909 177.118 92.0532 177.77 87.0383 178C86.7297 178 86.3054 177.731 86.1125 177.463C81.9849 172.208 78.5516 166.531 75.8899 160.432C73.4211 154.793 71.6851 148.885 70.875 142.786C70.5279 140.255 70.4893 137.685 70.2578 134.616Z" fill="#F36F21"/>
<path d="M9 91.999C12.6261 63.8435 35.6173 34.729 71.3386 29.0135C109.76 22.876 139.464 45.6613 150.766 69.0987C150.303 69.0987 149.956 69.0987 149.57 69.0987C125.383 69.0987 101.158 69.0987 76.9706 69.022C73.8074 69.022 70.6056 68.8302 67.4424 68.9069C48.1931 69.2905 30.6796 74.9676 15.2493 86.5521C13.2819 88.0481 11.5074 89.7742 9.61721 91.4237C9.42433 91.5771 9.23146 91.7689 9 91.999Z" fill="#F36F21"/>
<path d="M61.3469 174.855C58.8781 173.934 56.7179 173.128 54.519 172.323C54.3647 172.284 54.2104 172.208 54.0561 172.131C51.0986 170.878 48.9255 168.794 47.5368 165.878C44.2578 159.089 42.0976 151.993 41.0946 144.512C40.516 140.331 40.2074 136.15 40.6317 131.969C41.2489 125.947 42.7148 120.078 44.9522 114.439C50.1985 101.205 59.4181 91.5005 71.6853 84.4041C80.6349 79.2256 90.3174 75.8883 100.308 73.4716C101.196 73.2415 102.083 73.0498 103.24 72.7812C100.347 73.8937 97.724 74.8143 95.178 75.8884C83.8753 80.6832 73.5755 87.0125 65.1274 96.0269C57.8366 103.775 52.8603 112.751 50.7772 123.185C50.1985 126.062 49.7742 129.015 49.6971 131.969C49.3113 147.044 53.0917 161.084 60.9226 174.011C61.0383 174.164 61.1155 174.356 61.3469 174.778V174.855Z" fill="#F36F21"/>
<path d="M90.1253 71.5151C75.0421 73.5098 60.6533 77.5375 47.6533 85.6696C37.6236 91.9221 29.7155 100.169 24.6235 110.91C22.0775 116.319 20.303 121.996 19.6087 127.941C19.0686 132.353 18.8757 136.802 18.5285 141.099C18.5285 141.099 18.3357 140.83 18.1814 140.6C15.9054 136.649 14.0152 132.506 12.4336 128.248C12.0864 127.328 12.125 126.484 12.3178 125.601C14.2852 116.012 17.9885 107.189 24.0449 99.3638C29.7155 92.0372 36.7749 86.3984 44.9916 82.1405C53.2854 77.806 62.1192 75.1592 71.3003 73.5098C77.5496 72.3974 83.8374 71.7452 90.1639 71.5535L90.1253 71.5151Z" fill="#F36F21"/>
<path d="M187.249 105V96.8H196.515V55.8H187.249V47.6H214.637V55.8H205.371V96.8H214.637V105H187.249ZM229.851 105.902C228.047 105.902 226.653 105.383 225.669 104.344C224.685 103.251 224.193 101.72 224.193 99.752C224.193 97.948 224.712 96.472 225.751 95.324C226.79 94.176 228.156 93.602 229.851 93.602C231.655 93.602 233.049 94.1487 234.033 95.242C235.017 96.2807 235.509 97.784 235.509 99.752C235.509 101.556 234.99 103.032 233.951 104.18C232.912 105.328 231.546 105.902 229.851 105.902ZM247.197 105V47.6H256.053V105H247.197ZM251.133 80.564V72.036H280.735V80.564H251.133ZM251.133 56.128V47.6H284.425V56.128H251.133ZM291.271 105.902C289.467 105.902 288.073 105.383 287.089 104.344C286.105 103.251 285.613 101.72 285.613 99.752C285.613 97.948 286.132 96.472 287.171 95.324C288.21 94.176 289.576 93.602 291.271 93.602C293.075 93.602 294.469 94.1487 295.453 95.242C296.437 96.2807 296.929 97.784 296.929 99.752C296.929 101.556 296.41 103.032 295.371 104.18C294.332 105.328 292.966 105.902 291.271 105.902ZM302.631 105L324.853 47.6H333.873L355.931 105H346.501L333.381 70.396C333.217 70.0133 332.889 69.084 332.397 67.608C331.96 66.132 331.44 64.492 330.839 62.688C330.238 60.884 329.691 59.244 329.199 57.768C328.707 56.2373 328.379 55.2533 328.215 54.816L330.101 54.734C329.773 55.6633 329.363 56.8387 328.871 58.26C328.434 59.6813 327.942 61.1847 327.395 62.77C326.903 64.3553 326.411 65.8587 325.919 67.28C325.427 68.6467 325.017 69.7947 324.689 70.724L311.651 105H302.631ZM312.471 90.732L315.751 82.204H341.827L345.599 90.732H312.471ZM367.345 105.902C365.541 105.902 364.147 105.383 363.163 104.344C362.179 103.251 361.687 101.72 361.687 99.752C361.687 97.948 362.206 96.472 363.245 95.324C364.284 94.176 365.65 93.602 367.345 93.602C369.149 93.602 370.543 94.1487 371.527 95.242C372.511 96.2807 373.003 97.784 373.003 99.752C373.003 101.556 372.484 103.032 371.445 104.18C370.406 105.328 369.04 105.902 367.345 105.902Z" fill="black"/>
<path d="M186.924 146V127.54H190.512V146H186.924ZM204.451 134.144V146H200.863V127.54H203.723L213.265 139.708V127.566H216.853V146H213.863L204.451 134.144ZM241 130.686H235.098V146H231.536V130.686H225.634V127.54H241V130.686ZM262.609 142.854V146H249.791V127.54H262.375V130.686H253.379V135.132H261.153V138.044H253.379V142.854H262.609ZM279.246 146.13C278.05 146.13 276.915 145.887 275.84 145.402C274.783 144.917 273.847 144.249 273.032 143.4C272.235 142.533 271.611 141.528 271.16 140.384C270.71 139.24 270.484 138.001 270.484 136.666C270.484 135.401 270.71 134.213 271.16 133.104C271.611 131.977 272.244 130.989 273.058 130.14C273.873 129.291 274.826 128.623 275.918 128.138C277.01 127.653 278.198 127.41 279.48 127.41C281.214 127.41 282.696 127.783 283.926 128.528C285.174 129.256 286.11 130.227 286.734 131.44L284.056 133.416C283.588 132.497 282.93 131.795 282.08 131.31C281.248 130.825 280.338 130.582 279.35 130.582C278.57 130.582 277.86 130.747 277.218 131.076C276.577 131.405 276.022 131.856 275.554 132.428C275.086 133 274.722 133.659 274.462 134.404C274.22 135.149 274.098 135.938 274.098 136.77C274.098 137.654 274.228 138.469 274.488 139.214C274.766 139.959 275.147 140.609 275.632 141.164C276.135 141.719 276.716 142.161 277.374 142.49C278.033 142.802 278.761 142.958 279.558 142.958C280.494 142.958 281.387 142.715 282.236 142.23C283.103 141.745 283.909 141.034 284.654 140.098V143.634C283.112 145.298 281.309 146.13 279.246 146.13ZM284.394 139.136H280.676V136.51H287.358V146H284.394V139.136ZM296.916 146V127.54H305.08C305.93 127.54 306.71 127.713 307.42 128.06C308.148 128.407 308.772 128.875 309.292 129.464C309.83 130.053 310.237 130.712 310.514 131.44C310.809 132.168 310.956 132.913 310.956 133.676C310.956 134.456 310.818 135.21 310.54 135.938C310.28 136.649 309.899 137.273 309.396 137.81C308.894 138.347 308.304 138.763 307.628 139.058L311.84 146H307.888L304.092 139.812H300.504V146H296.916ZM300.504 136.666H305.002C305.453 136.666 305.852 136.536 306.198 136.276C306.545 135.999 306.822 135.635 307.03 135.184C307.238 134.733 307.342 134.231 307.342 133.676C307.342 133.087 307.221 132.575 306.978 132.142C306.736 131.691 306.424 131.336 306.042 131.076C305.678 130.816 305.28 130.686 304.846 130.686H300.504V136.666ZM325.725 127.54H329.365L336.151 146H332.459L330.743 141.398H324.295L322.605 146H318.913L325.725 127.54ZM330.093 138.876L327.545 131.258L324.893 138.876H330.093ZM356.755 130.686H350.853V146H347.291V130.686H341.389V127.54H356.755V130.686ZM365.547 146V127.54H369.135V146H365.547ZM387.365 146.13C386.013 146.13 384.782 145.87 383.673 145.35C382.581 144.83 381.636 144.128 380.839 143.244C380.059 142.343 379.452 141.337 379.019 140.228C378.585 139.101 378.369 137.949 378.369 136.77C378.369 135.539 378.594 134.369 379.045 133.26C379.513 132.133 380.145 131.137 380.943 130.27C381.757 129.386 382.711 128.693 383.803 128.19C384.912 127.67 386.125 127.41 387.443 127.41C388.777 127.41 389.991 127.679 391.083 128.216C392.192 128.753 393.137 129.473 393.917 130.374C394.697 131.275 395.303 132.281 395.737 133.39C396.17 134.499 396.387 135.643 396.387 136.822C396.387 138.035 396.161 139.205 395.711 140.332C395.26 141.441 394.627 142.438 393.812 143.322C393.015 144.189 392.062 144.873 390.953 145.376C389.861 145.879 388.665 146.13 387.365 146.13ZM382.009 136.77C382.009 137.567 382.13 138.339 382.373 139.084C382.615 139.829 382.962 140.497 383.413 141.086C383.881 141.658 384.444 142.117 385.103 142.464C385.779 142.793 386.541 142.958 387.391 142.958C388.257 142.958 389.029 142.785 389.705 142.438C390.381 142.074 390.944 141.597 391.395 141.008C391.845 140.401 392.183 139.734 392.409 139.006C392.651 138.261 392.773 137.515 392.773 136.77C392.773 135.973 392.643 135.21 392.383 134.482C392.14 133.737 391.785 133.078 391.317 132.506C390.866 131.917 390.303 131.457 389.627 131.128C388.968 130.781 388.223 130.608 387.391 130.608C386.507 130.608 385.727 130.79 385.051 131.154C384.392 131.501 383.837 131.969 383.387 132.558C382.936 133.147 382.589 133.806 382.347 134.534C382.121 135.262 382.009 136.007 382.009 136.77ZM409.227 134.144V146H405.639V127.54H408.499L418.041 139.708V127.566H421.629V146H418.639L409.227 134.144ZM186.924 177V158.54H199.326V161.686H190.512V166.444H197.844V169.356H190.512V177H186.924ZM208.354 177V158.54H211.942V173.854H221.354V177H208.354ZM237.509 177.13C236.157 177.13 234.926 176.87 233.817 176.35C232.725 175.83 231.78 175.128 230.983 174.244C230.203 173.343 229.596 172.337 229.163 171.228C228.73 170.101 228.513 168.949 228.513 167.77C228.513 166.539 228.738 165.369 229.189 164.26C229.657 163.133 230.29 162.137 231.087 161.27C231.902 160.386 232.855 159.693 233.947 159.19C235.056 158.67 236.27 158.41 237.587 158.41C238.922 158.41 240.135 158.679 241.227 159.216C242.336 159.753 243.281 160.473 244.061 161.374C244.841 162.275 245.448 163.281 245.881 164.39C246.314 165.499 246.531 166.643 246.531 167.822C246.531 169.035 246.306 170.205 245.855 171.332C245.404 172.441 244.772 173.438 243.957 174.322C243.16 175.189 242.206 175.873 241.097 176.376C240.005 176.879 238.809 177.13 237.509 177.13ZM232.153 167.77C232.153 168.567 232.274 169.339 232.517 170.084C232.76 170.829 233.106 171.497 233.557 172.086C234.025 172.658 234.588 173.117 235.247 173.464C235.923 173.793 236.686 173.958 237.535 173.958C238.402 173.958 239.173 173.785 239.849 173.438C240.525 173.074 241.088 172.597 241.539 172.008C241.99 171.401 242.328 170.734 242.553 170.006C242.796 169.261 242.917 168.515 242.917 167.77C242.917 166.973 242.787 166.21 242.527 165.482C242.284 164.737 241.929 164.078 241.461 163.506C241.01 162.917 240.447 162.457 239.771 162.128C239.112 161.781 238.367 161.608 237.535 161.608C236.651 161.608 235.871 161.79 235.195 162.154C234.536 162.501 233.982 162.969 233.531 163.558C233.08 164.147 232.734 164.806 232.491 165.534C232.266 166.262 232.153 167.007 232.153 167.77ZM261.365 158.592H264.693L266.799 164.702L268.931 158.592H272.233L269.061 166.99L271.401 172.866L276.627 158.54H280.527L273.143 177H270.049L266.799 169.252L263.575 177H260.481L253.123 158.54H256.971L262.223 172.866L264.511 166.99L261.365 158.592ZM304.956 158.54H308.596L315.382 177H311.69L309.974 172.398H303.526L301.836 177H298.144L304.956 158.54ZM309.324 169.876L306.776 162.258L304.124 169.876H309.324ZM327.494 165.144V177H323.906V158.54H326.766L336.308 170.708V158.566H339.896V177H336.906L327.494 165.144ZM355.255 158.54H358.895L365.681 177H361.989L360.273 172.398H353.825L352.134 177H348.443L355.255 158.54ZM359.623 169.876L357.075 162.258L354.423 169.876H359.623ZM374.205 177V158.54H377.793V173.854H387.205V177H374.205ZM395.277 158.54L399.827 167.224L404.455 158.54H408.329L401.621 170.552V177H398.059V170.5L391.377 158.54H395.277ZM415.718 174.296L426.014 161.686H416.004V158.54H430.278V161.244L420.32 173.854H430.356V177H415.718V174.296ZM452.48 173.854V177H439.662V158.54H452.246V161.686H443.25V166.132H451.024V169.044H443.25V173.854H452.48ZM461.778 177V158.54H469.942C470.791 158.54 471.571 158.713 472.282 159.06C473.01 159.407 473.634 159.875 474.154 160.464C474.691 161.053 475.098 161.712 475.376 162.44C475.67 163.168 475.818 163.913 475.818 164.676C475.818 165.456 475.679 166.21 475.402 166.938C475.142 167.649 474.76 168.273 474.258 168.81C473.755 169.347 473.166 169.763 472.49 170.058L476.702 177H472.75L468.954 170.812H465.366V177H461.778ZM465.366 167.666H469.864C470.314 167.666 470.713 167.536 471.06 167.276C471.406 166.999 471.684 166.635 471.892 166.184C472.1 165.733 472.204 165.231 472.204 164.676C472.204 164.087 472.082 163.575 471.84 163.142C471.597 162.691 471.285 162.336 470.904 162.076C470.54 161.816 470.141 161.686 469.708 161.686H465.366V167.666Z" fill="#F36F21"/>
</svg>
